REM DIRINDEX 1\2,1\3,1\4,1\5
REM DIRNAME folder01,folder02,folder03,folder04,folder05
TITLE ""
FILE "Chapter_03.mp3" MP3
  TRACK 01 AUDIO
    TITLE "0:"
    INDEX 01 00:00:00
  TRACK 02 AUDIO
    TITLE "5:cjc087_0659"
    INDEX 01 00:00:09
  TRACK 03 AUDIO
    TITLE "0:"
    INDEX 01 00:01:52
  TRACK 04 AUDIO
    TITLE "5:cjc087_0660"
    INDEX 01 00:03:14
  TRACK 05 AUDIO
    TITLE "0:"
    INDEX 01 00:05:10
  TRACK 06 AUDIO
    TITLE "4:cjc087_0661"
    INDEX 01 00:06:08
  TRACK 07 AUDIO
    TITLE "3:cjc087_0662"
    INDEX 01 00:08:19
  TRACK 08 AUDIO
    TITLE "0:"
    INDEX 01 00:10:02
  TRACK 09 AUDIO
    TITLE "4:cjc087_0663"
    INDEX 01 00:10:74
  TRACK 10 AUDIO
    TITLE "3:cjc087_0664"
    INDEX 01 00:12:30
  TRACK 11 AUDIO
    TITLE "0:"
    INDEX 01 00:14:37
  TRACK 12 AUDIO
    TITLE "4:cjc087_0665"
    INDEX 01 00:15:34
  TRACK 13 AUDIO
    TITLE "3:cjc087_0666"
    INDEX 01 00:18:01
  TRACK 14 AUDIO
    TITLE "0:"
    INDEX 01 00:21:09
  TRACK 15 AUDIO
    TITLE "4:cjc087_0667"
    INDEX 01 00:22:09
  TRACK 16 AUDIO
    TITLE "3:cjc087_0668"
    INDEX 01 00:24:31
  TRACK 17 AUDIO
    TITLE "0:"
    INDEX 01 00:26:36
  TRACK 18 AUDIO
    TITLE "4:cjc087_0669"
    INDEX 01 00:27:34
  TRACK 19 AUDIO
    TITLE "3:cjc087_0670"
    INDEX 01 00:29:70
  TRACK 20 AUDIO
    TITLE "0:"
    INDEX 01 00:31:57
  TRACK 21 AUDIO
    TITLE "4:cjc087_0671"
    INDEX 01 00:32:56
  TRACK 22 AUDIO
    TITLE "3:cjc087_0672"
    INDEX 01 00:34:43
  TRACK 23 AUDIO
    TITLE "0:"
    INDEX 01 00:36:35
  TRACK 24 AUDIO
    TITLE "4:cjc087_0673"
    INDEX 01 00:37:32
  TRACK 25 AUDIO
    TITLE "3:cjc087_0674"
    INDEX 01 00:40:24
  TRACK 26 AUDIO
    TITLE "0:"
    INDEX 01 00:41:59
  TRACK 27 AUDIO
    TITLE "2:cjc087_0675"
    INDEX 01 00:43:23
  TRACK 28 AUDIO
    TITLE "0:"
    INDEX 01 00:51:22
  TRACK 29 AUDIO
    TITLE "5:cjc087_0676"
    INDEX 01 00:52:59
  TRACK 30 AUDIO
    TITLE "0:"
    INDEX 01 00:54:66
  TRACK 31 AUDIO
    TITLE "3:cjc087_0677"
    INDEX 01 00:55:61
  TRACK 32 AUDIO
    TITLE "4:cjc087_0678"
    INDEX 01 00:58:24
  TRACK 33 AUDIO
    TITLE "0:"
    INDEX 01 01:00:25
  TRACK 34 AUDIO
    TITLE "3:cjc087_0679"
    INDEX 01 01:01:23
  TRACK 35 AUDIO
    TITLE "4:cjc087_0680"
    INDEX 01 01:07:12
  TRACK 36 AUDIO
    TITLE "0:"
    INDEX 01 01:13:24
  TRACK 37 AUDIO
    TITLE "3:cjc087_0681"
    INDEX 01 01:14:21
  TRACK 38 AUDIO
    TITLE "4:cjc087_0682"
    INDEX 01 01:16:30
  TRACK 39 AUDIO
    TITLE "0:"
    INDEX 01 01:18:07
  TRACK 40 AUDIO
    TITLE "3:cjc087_0683"
    INDEX 01 01:19:05
  TRACK 41 AUDIO
    TITLE "4:cjc087_0684"
    INDEX 01 01:21:23
  TRACK 42 AUDIO
    TITLE "0:"
    INDEX 01 01:24:00
  TRACK 43 AUDIO
    TITLE "5:cjc087_0685"
    INDEX 01 01:25:35
  TRACK 44 AUDIO
    TITLE "0:"
    INDEX 01 01:27:36
  TRACK 45 AUDIO
    TITLE "4:cjc087_0686"
    INDEX 01 01:28:33
  TRACK 46 AUDIO
    TITLE "3:cjc087_0687"
    INDEX 01 01:31:16
  TRACK 47 AUDIO
    TITLE "0:"
    INDEX 01 01:33:70
  TRACK 48 AUDIO
    TITLE "4:cjc087_0688"
    INDEX 01 01:34:69
  TRACK 49 AUDIO
    TITLE "3:cjc087_0689"
    INDEX 01 01:37:03
  TRACK 50 AUDIO
    TITLE "0:"
    INDEX 01 01:39:27
  TRACK 51 AUDIO
    TITLE "4:cjc087_0690"
    INDEX 01 01:40:25
  TRACK 52 AUDIO
    TITLE "3:cjc087_0691"
    INDEX 01 01:42:22
  TRACK 53 AUDIO
    TITLE "0:"
    INDEX 01 01:45:04
  TRACK 54 AUDIO
    TITLE "4:cjc087_0692"
    INDEX 01 01:46:04
  TRACK 55 AUDIO
    TITLE "3:cjc087_0693"
    INDEX 01 01:47:74
  TRACK 56 AUDIO
    TITLE "0:"
    INDEX 01 01:50:09
  TRACK 57 AUDIO
    TITLE "4:cjc087_0694"
    INDEX 01 01:51:09
  TRACK 58 AUDIO
    TITLE "3:cjc087_0695"
    INDEX 01 01:53:63
  TRACK 59 AUDIO
    TITLE "0:"
    INDEX 01 01:57:23
  TRACK 60 AUDIO
    TITLE "4:cjc087_0696"
    INDEX 01 01:58:23
  TRACK 61 AUDIO
    TITLE "3:cjc087_0697"
    INDEX 01 02:00:18
  TRACK 62 AUDIO
    TITLE "0:"
    INDEX 01 02:02:44
  TRACK 63 AUDIO
    TITLE "5:cjc087_0698"
    INDEX 01 02:04:04
  TRACK 64 AUDIO
    TITLE "0:"
    INDEX 01 02:06:12
  TRACK 65 AUDIO
    TITLE "4:cjc087_0699"
    INDEX 01 02:07:10
  TRACK 66 AUDIO
    TITLE "3:cjc087_0700"
    INDEX 01 02:09:15
  TRACK 67 AUDIO
    TITLE "0:"
    INDEX 01 02:11:51
  TRACK 68 AUDIO
    TITLE "4:cjc087_0701"
    INDEX 01 02:12:48
  TRACK 69 AUDIO
    TITLE "3:cjc087_0702"
    INDEX 01 02:15:39
  TRACK 70 AUDIO
    TITLE "0:"
    INDEX 01 02:18:37
  TRACK 71 AUDIO
    TITLE "4:cjc087_0703"
    INDEX 01 02:19:35
  TRACK 72 AUDIO
    TITLE "3:cjc087_0704"
    INDEX 01 02:22:21
  TRACK 73 AUDIO
    TITLE "0:"
    INDEX 01 02:24:69
  TRACK 74 AUDIO
    TITLE "4:cjc087_0705"
    INDEX 01 02:25:61
  TRACK 75 AUDIO
    TITLE "3:cjc087_0706"
    INDEX 01 02:28:69
  TRACK 76 AUDIO
    TITLE "0:"
    INDEX 01 02:31:44
  TRACK 77 AUDIO
    TITLE "4:cjc087_0707"
    INDEX 01 02:32:41
  TRACK 78 AUDIO
    TITLE "3:cjc087_0708"
    INDEX 01 02:36:29
  TRACK 79 AUDIO
    TITLE "0:"
    INDEX 01 02:40:17
  TRACK 80 AUDIO
    TITLE "4:cjc087_0709"
    INDEX 01 02:41:15
  TRACK 81 AUDIO
    TITLE "3:cjc087_0710"
    INDEX 01 02:44:13
  TRACK 82 AUDIO
    TITLE "0:"
    INDEX 01 02:45:69
  TRACK 83 AUDIO
    TITLE "4:cjc087_0711"
    INDEX 01 02:46:67
  TRACK 84 AUDIO
    TITLE "3:cjc087_0712"
    INDEX 01 02:48:68
  TRACK 85 AUDIO
    TITLE "0:"
    INDEX 01 02:50:72
  TRACK 86 AUDIO
    TITLE "5:cjc087_0713"
    INDEX 01 02:52:28
  TRACK 87 AUDIO
    TITLE "0:"
    INDEX 01 02:54:31
  TRACK 88 AUDIO
    TITLE "4:cjc087_0714"
    INDEX 01 02:55:28
  TRACK 89 AUDIO
    TITLE "3:cjc087_0715"
    INDEX 01 02:57:69
  TRACK 90 AUDIO
    TITLE "0:"
    INDEX 01 03:00:20
  TRACK 91 AUDIO
    TITLE "4:cjc087_0716"
    INDEX 01 03:01:19
  TRACK 92 AUDIO
    TITLE "3:cjc087_0717"
    INDEX 01 03:03:18
  TRACK 93 AUDIO
    TITLE "0:"
    INDEX 01 03:05:07
  TRACK 94 AUDIO
    TITLE "4:cjc087_0718"
    INDEX 01 03:06:07
  TRACK 95 AUDIO
    TITLE "3:cjc087_0719"
    INDEX 01 03:07:69
  TRACK 96 AUDIO
    TITLE "0:"
    INDEX 01 03:10:03
  TRACK 97 AUDIO
    TITLE "4:cjc087_0720"
    INDEX 01 03:11:00
  TRACK 98 AUDIO
    TITLE "3:cjc087_0721"
    INDEX 01 03:12:56
  TRACK 99 AUDIO
    TITLE "0:"
    INDEX 01 03:14:55
  TRACK 100 AUDIO
    TITLE "4:cjc087_0722"
    INDEX 01 03:15:55
  TRACK 101 AUDIO
    TITLE "3:cjc087_0723"
    INDEX 01 03:18:14
  TRACK 102 AUDIO
    TITLE "0:"
    INDEX 01 03:20:50
  TRACK 103 AUDIO
    TITLE "4:cjc087_0724"
    INDEX 01 03:21:47
  TRACK 104 AUDIO
    TITLE "3:cjc087_0725"
    INDEX 01 03:23:46
  TRACK 105 AUDIO
    TITLE "0:"
    INDEX 01 03:25:55
  TRACK 106 AUDIO
    TITLE "4:cjc087_0726"
    INDEX 01 03:26:53
  TRACK 107 AUDIO
    TITLE "3:cjc087_0727"
    INDEX 01 03:29:00
  TRACK 108 AUDIO
    TITLE "0:"
    INDEX 01 03:31:26
  TRACK 109 AUDIO
    TITLE "5:cjc087_0728"
    INDEX 01 03:33:08
  TRACK 110 AUDIO
    TITLE "0:"
    INDEX 01 03:34:56
  TRACK 111 AUDIO
    TITLE "3:cjc087_0729"
    INDEX 01 03:35:53
  TRACK 112 AUDIO
    TITLE "4:cjc087_0730"
    INDEX 01 03:38:13
  TRACK 113 AUDIO
    TITLE "0:"
    INDEX 01 03:40:21
  TRACK 114 AUDIO
    TITLE "3:cjc087_0731"
    INDEX 01 03:41:19
  TRACK 115 AUDIO
    TITLE "4:cjc087_0732"
    INDEX 01 03:44:05
  TRACK 116 AUDIO
    TITLE "0:"
    INDEX 01 03:45:69
  TRACK 117 AUDIO
    TITLE "3:cjc087_0733"
    INDEX 01 03:46:67
  TRACK 118 AUDIO
    TITLE "4:cjc087_0734"
    INDEX 01 03:49:16
  TRACK 119 AUDIO
    TITLE "0:"
    INDEX 01 03:51:52
  TRACK 120 AUDIO
    TITLE "3:cjc087_0735"
    INDEX 01 03:52:52
  TRACK 121 AUDIO
    TITLE "4:cjc087_0736"
    INDEX 01 03:57:24
  TRACK 122 AUDIO
    TITLE "0:"
    INDEX 01 04:01:20
  TRACK 123 AUDIO
    TITLE "3:cjc087_0737"
    INDEX 01 04:02:19
  TRACK 124 AUDIO
    TITLE "4:cjc087_0738"
    INDEX 01 04:04:36
  TRACK 125 AUDIO
    TITLE "0:"
    INDEX 01 04:06:40
  TRACK 126 AUDIO
    TITLE "2:cjc087_0739"
    INDEX 01 04:08:02
  TRACK 127 AUDIO
    TITLE "0:"
    INDEX 01 04:25:40
  TRACK 128 AUDIO
    TITLE "5:cjc087_0740"
    INDEX 01 04:27:11
  TRACK 129 AUDIO
    TITLE "0:"
    INDEX 01 04:29:10
  TRACK 130 AUDIO
    TITLE "4:cjc087_0741"
    INDEX 01 04:30:06
  TRACK 131 AUDIO
    TITLE "3:cjc087_0742"
    INDEX 01 04:32:38
  TRACK 132 AUDIO
    TITLE "0:"
    INDEX 01 04:34:50
  TRACK 133 AUDIO
    TITLE "4:cjc087_0743"
    INDEX 01 04:35:46
  TRACK 134 AUDIO
    TITLE "3:cjc087_0744"
    INDEX 01 04:37:49
  TRACK 135 AUDIO
    TITLE "0:"
    INDEX 01 04:39:44
  TRACK 136 AUDIO
    TITLE "4:cjc087_0745"
    INDEX 01 04:40:41
  TRACK 137 AUDIO
    TITLE "3:cjc087_0746"
    INDEX 01 04:41:66
  TRACK 138 AUDIO
    TITLE "0:"
    INDEX 01 04:43:69
  TRACK 139 AUDIO
    TITLE "4:cjc087_0747"
    INDEX 01 04:44:66
  TRACK 140 AUDIO
    TITLE "3:cjc087_0748"
    INDEX 01 04:48:01
  TRACK 141 AUDIO
    TITLE "0:"
    INDEX 01 04:50:59
  TRACK 142 AUDIO
    TITLE "4:cjc087_0749"
    INDEX 01 04:51:59
  TRACK 143 AUDIO
    TITLE "3:cjc087_0750"
    INDEX 01 04:53:56
  TRACK 144 AUDIO
    TITLE "0:"
    INDEX 01 04:55:68
  TRACK 145 AUDIO
    TITLE "4:cjc087_0751"
    INDEX 01 04:56:66
  TRACK 146 AUDIO
    TITLE "3:cjc087_0752"
    INDEX 01 04:59:19
  TRACK 147 AUDIO
    TITLE "0:"
    INDEX 01 05:02:06
  TRACK 148 AUDIO
    TITLE "5:cjc087_0753"
    INDEX 01 05:03:34
  TRACK 149 AUDIO
    TITLE "0:"
    INDEX 01 05:05:29
  TRACK 150 AUDIO
    TITLE "3:cjc087_0754"
    INDEX 01 05:06:27
  TRACK 151 AUDIO
    TITLE "4:cjc087_0755"
    INDEX 01 05:08:43
  TRACK 152 AUDIO
    TITLE "0:"
    INDEX 01 05:10:21
  TRACK 153 AUDIO
    TITLE "3:cjc087_0756"
    INDEX 01 05:11:18
  TRACK 154 AUDIO
    TITLE "4:cjc087_0757"
    INDEX 01 05:15:16
  TRACK 155 AUDIO
    TITLE "0:"
    INDEX 01 05:17:36
  TRACK 156 AUDIO
    TITLE "3:cjc087_0758"
    INDEX 01 05:18:34
  TRACK 157 AUDIO
    TITLE "4:cjc087_0759"
    INDEX 01 05:20:35
  TRACK 158 AUDIO
    TITLE "0:"
    INDEX 01 05:22:57
  TRACK 159 AUDIO
    TITLE "3:cjc087_0760"
    INDEX 01 05:23:53
  TRACK 160 AUDIO
    TITLE "4:cjc087_0761"
    INDEX 01 05:26:33
  TRACK 161 AUDIO
    TITLE "0:"
    INDEX 01 05:28:44
  TRACK 162 AUDIO
    TITLE "3:cjc087_0762"
    INDEX 01 05:29:42
  TRACK 163 AUDIO
    TITLE "4:cjc087_0763"
    INDEX 01 05:32:11
  TRACK 164 AUDIO
    TITLE "0:"
    INDEX 01 05:34:68
  TRACK 165 AUDIO
    TITLE "3:cjc087_0764"
    INDEX 01 05:35:66
  TRACK 166 AUDIO
    TITLE "4:cjc087_0765"
    INDEX 01 05:38:23
  TRACK 167 AUDIO
    TITLE "0:"
    INDEX 01 05:41:47
  TRACK 168 AUDIO
    TITLE "3:cjc087_0766"
    INDEX 01 05:42:44
  TRACK 169 AUDIO
    TITLE "4:cjc087_0767"
    INDEX 01 05:44:33
  TRACK 170 AUDIO
    TITLE "0:"
    INDEX 01 05:46:07
  TRACK 171 AUDIO
    TITLE "5:cjc087_0768"
    INDEX 01 05:47:53
  TRACK 172 AUDIO
    TITLE "0:"
    INDEX 01 05:49:46
  TRACK 173 AUDIO
    TITLE "4:cjc087_0769"
    INDEX 01 05:50:44
  TRACK 174 AUDIO
    TITLE "3:cjc087_0770"
    INDEX 01 05:52:66
  TRACK 175 AUDIO
    TITLE "0:"
    INDEX 01 05:55:21
  TRACK 176 AUDIO
    TITLE "4:cjc087_0771"
    INDEX 01 05:56:21
  TRACK 177 AUDIO
    TITLE "3:cjc087_0772"
    INDEX 01 05:58:61
  TRACK 178 AUDIO
    TITLE "0:"
    INDEX 01 06:01:51
  TRACK 179 AUDIO
    TITLE "4:cjc087_0773"
    INDEX 01 06:02:51
  TRACK 180 AUDIO
    TITLE "3:cjc087_0774"
    INDEX 01 06:04:40
  TRACK 181 AUDIO
    TITLE "0:"
    INDEX 01 06:07:32
  TRACK 182 AUDIO
    TITLE "4:cjc087_0775"
    INDEX 01 06:08:30
  TRACK 183 AUDIO
    TITLE "3:cjc087_0776"
    INDEX 01 06:10:15
  TRACK 184 AUDIO
    TITLE "0:"
    INDEX 01 06:12:20
  TRACK 185 AUDIO
    TITLE "4:cjc087_0777"
    INDEX 01 06:13:17
  TRACK 186 AUDIO
    TITLE "3:cjc087_0778"
    INDEX 01 06:15:61
  TRACK 187 AUDIO
    TITLE "0:"
    INDEX 01 06:18:13
  TRACK 188 AUDIO
    TITLE "4:cjc087_0779"
    INDEX 01 06:19:08
  TRACK 189 AUDIO
    TITLE "3:cjc087_0780"
    INDEX 01 06:20:70
  TRACK 190 AUDIO
    TITLE "0:"
    INDEX 01 06:23:02
  TRACK 191 AUDIO
    TITLE "5:cjc087_0781"
    INDEX 01 06:24:37
  TRACK 192 AUDIO
    TITLE "0:"
    INDEX 01 06:26:28
  TRACK 193 AUDIO
    TITLE "4:cjc087_0782"
    INDEX 01 06:27:27
  TRACK 194 AUDIO
    TITLE "3:cjc087_0783"
    INDEX 01 06:28:72
  TRACK 195 AUDIO
    TITLE "0:"
    INDEX 01 06:30:47
  TRACK 196 AUDIO
    TITLE "4:cjc087_0784"
    INDEX 01 06:31:47
  TRACK 197 AUDIO
    TITLE "3:cjc087_0785"
    INDEX 01 06:32:73
  TRACK 198 AUDIO
    TITLE "0:"
    INDEX 01 06:35:11
  TRACK 199 AUDIO
    TITLE "4:cjc087_0786"
    INDEX 01 06:36:09
  TRACK 200 AUDIO
    TITLE "3:cjc087_0787"
    INDEX 01 06:38:04
  TRACK 201 AUDIO
    TITLE "0:"
    INDEX 01 06:40:20
  TRACK 202 AUDIO
    TITLE "4:cjc087_0788"
    INDEX 01 06:41:20
  TRACK 203 AUDIO
    TITLE "3:cjc087_0789"
    INDEX 01 06:43:07
  TRACK 204 AUDIO
    TITLE "0:"
    INDEX 01 06:45:02
  TRACK 205 AUDIO
    TITLE "4:cjc087_0790"
    INDEX 01 06:45:70
  TRACK 206 AUDIO
    TITLE "3:cjc087_0791"
    INDEX 01 06:50:18
  TRACK 207 AUDIO
    TITLE "0:"
    INDEX 01 06:53:60
  TRACK 208 AUDIO
    TITLE "4:cjc087_0792"
    INDEX 01 06:54:59
  TRACK 209 AUDIO
    TITLE "3:cjc087_0793"
    INDEX 01 06:57:21
  TRACK 210 AUDIO
    TITLE "0:"
    INDEX 01 06:59:74
  TRACK 211 AUDIO
    TITLE "4:cjc087_0794"
    INDEX 01 07:00:72
  TRACK 212 AUDIO
    TITLE "3:cjc087_0795"
    INDEX 01 07:02:24
  TRACK 213 AUDIO
    TITLE "0:"
    INDEX 01 07:04:11
  TRACK 214 AUDIO
    TITLE "5:cjc087_0796"
    INDEX 01 07:05:47
  TRACK 215 AUDIO
    TITLE "0:"
    INDEX 01 07:07:35
  TRACK 216 AUDIO
    TITLE "4:cjc087_0797"
    INDEX 01 07:08:32
  TRACK 217 AUDIO
    TITLE "3:cjc087_0798"
    INDEX 01 07:10:49
  TRACK 218 AUDIO
    TITLE "0:"
    INDEX 01 07:12:61
  TRACK 219 AUDIO
    TITLE "4:cjc087_0799"
    INDEX 01 07:13:59
  TRACK 220 AUDIO
    TITLE "3:cjc087_0800"
    INDEX 01 07:15:71
  TRACK 221 AUDIO
    TITLE "0:"
    INDEX 01 07:18:19
  TRACK 222 AUDIO
    TITLE "4:cjc087_0801"
    INDEX 01 07:19:16
  TRACK 223 AUDIO
    TITLE "3:cjc087_0802"
    INDEX 01 07:21:54
  TRACK 224 AUDIO
    TITLE "0:"
    INDEX 01 07:24:23
  TRACK 225 AUDIO
    TITLE "4:cjc087_0803"
    INDEX 01 07:25:23
  TRACK 226 AUDIO
    TITLE "3:cjc087_0804"
    INDEX 01 07:27:41
  TRACK 227 AUDIO
    TITLE "0:"
    INDEX 01 07:29:71
  TRACK 228 AUDIO
    TITLE "4:cjc087_0805"
    INDEX 01 07:30:69
  TRACK 229 AUDIO
    TITLE "3:cjc087_0806"
    INDEX 01 07:33:59
  TRACK 230 AUDIO
    TITLE "0:"
    INDEX 01 07:37:00
  TRACK 231 AUDIO
    TITLE "4:cjc087_0807"
    INDEX 01 07:38:00
  TRACK 232 AUDIO
    TITLE "3:cjc087_0808"
    INDEX 01 07:41:12
  TRACK 233 AUDIO
    TITLE "0:"
    INDEX 01 07:43:60
  TRACK 234 AUDIO
    TITLE "5:cjc087_0809"
    INDEX 01 07:45:21
  TRACK 235 AUDIO
    TITLE "0:"
    INDEX 01 07:47:18
  TRACK 236 AUDIO
    TITLE "4:cjc087_0810"
    INDEX 01 07:48:16
  TRACK 237 AUDIO
    TITLE "3:cjc087_0811"
    INDEX 01 07:50:03
  TRACK 238 AUDIO
    TITLE "0:"
    INDEX 01 07:52:49
  TRACK 239 AUDIO
    TITLE "4:cjc087_0812"
    INDEX 01 07:53:48
  TRACK 240 AUDIO
    TITLE "3:cjc087_0813"
    INDEX 01 07:55:73
  TRACK 241 AUDIO
    TITLE "0:"
    INDEX 01 07:58:05
  TRACK 242 AUDIO
    TITLE "4:cjc087_0814"
    INDEX 01 07:59:04
  TRACK 243 AUDIO
    TITLE "3:cjc087_0815"
    INDEX 01 08:01:38
  TRACK 244 AUDIO
    TITLE "0:"
    INDEX 01 08:05:01
  TRACK 245 AUDIO
    TITLE "4:cjc087_0816"
    INDEX 01 08:05:73
  TRACK 246 AUDIO
    TITLE "3:cjc087_0817"
    INDEX 01 08:08:32
  TRACK 247 AUDIO
    TITLE "0:"
    INDEX 01 08:11:54
  TRACK 248 AUDIO
    TITLE "4:cjc087_0818"
    INDEX 01 08:12:54
  TRACK 249 AUDIO
    TITLE "3:cjc087_0819"
    INDEX 01 08:14:56
  TRACK 250 AUDIO
    TITLE "0:"
    INDEX 01 08:17:31
  TRACK 251 AUDIO
    TITLE "4:cjc087_0820"
    INDEX 01 08:18:31
  TRACK 252 AUDIO
    TITLE "3:cjc087_0821"
    INDEX 01 08:20:55
  TRACK 253 AUDIO
    TITLE "0:"
    INDEX 01 08:23:14
  TRACK 254 AUDIO
    TITLE "2:cjc087_0822"
    INDEX 01 08:24:55
  TRACK 255 AUDIO
    TITLE "0:"
    INDEX 01 08:32:74
  TRACK 256 AUDIO
    TITLE "5:cjc087_0823"
    INDEX 01 08:34:40
  TRACK 257 AUDIO
    TITLE "0:"
    INDEX 01 08:36:33
  TRACK 258 AUDIO
    TITLE "4:cjc087_0824"
    INDEX 01 08:37:30
  TRACK 259 AUDIO
    TITLE "3:cjc087_0825"
    INDEX 01 08:40:21
  TRACK 260 AUDIO
    TITLE "0:"
    INDEX 01 08:43:62
  TRACK 261 AUDIO
    TITLE "4:cjc087_0826"
    INDEX 01 08:44:61
  TRACK 262 AUDIO
    TITLE "3:cjc087_0827"
    INDEX 01 08:47:40
  TRACK 263 AUDIO
    TITLE "0:"
    INDEX 01 08:50:60
  TRACK 264 AUDIO
    TITLE "4:cjc087_0828"
    INDEX 01 08:51:58
  TRACK 265 AUDIO
    TITLE "3:cjc087_0829"
    INDEX 01 08:54:03
  TRACK 266 AUDIO
    TITLE "0:"
    INDEX 01 08:56:61
  TRACK 267 AUDIO
    TITLE "4:cjc087_0830"
    INDEX 01 08:57:58
  TRACK 268 AUDIO
    TITLE "3:cjc087_0831"
    INDEX 01 09:00:19
  TRACK 269 AUDIO
    TITLE "0:"
    INDEX 01 09:02:46
  TRACK 270 AUDIO
    TITLE "4:cjc087_0832"
    INDEX 01 09:03:43
  TRACK 271 AUDIO
    TITLE "3:cjc087_0833"
    INDEX 01 09:06:18
  TRACK 272 AUDIO
    TITLE "0:"
    INDEX 01 09:09:50
  TRACK 273 AUDIO
    TITLE "4:cjc087_0834"
    INDEX 01 09:10:49
  TRACK 274 AUDIO
    TITLE "3:cjc087_0835"
    INDEX 01 09:13:24
  TRACK 275 AUDIO
    TITLE "0:"
    INDEX 01 09:15:66
  TRACK 276 AUDIO
    TITLE "4:cjc087_0836"
    INDEX 01 09:16:63
  TRACK 277 AUDIO
    TITLE "3:cjc087_0837"
    INDEX 01 09:18:39
  TRACK 278 AUDIO
    TITLE "0:"
    INDEX 01 09:20:44
  TRACK 279 AUDIO
    TITLE "5:cjc087_0838"
    INDEX 01 09:22:05
  TRACK 280 AUDIO
    TITLE "0:"
    INDEX 01 09:24:02
  TRACK 281 AUDIO
    TITLE "3:cjc087_0839"
    INDEX 01 09:25:00
  TRACK 282 AUDIO
    TITLE "4:cjc087_0840"
    INDEX 01 09:27:57
  TRACK 283 AUDIO
    TITLE "0:"
    INDEX 01 09:30:03
  TRACK 284 AUDIO
    TITLE "3:cjc087_0841"
    INDEX 01 09:31:00
  TRACK 285 AUDIO
    TITLE "4:cjc087_0842"
    INDEX 01 09:33:36
  TRACK 286 AUDIO
    TITLE "0:"
    INDEX 01 09:35:41
  TRACK 287 AUDIO
    TITLE "3:cjc087_0843"
    INDEX 01 09:36:39
  TRACK 288 AUDIO
    TITLE "4:cjc087_0844"
    INDEX 01 09:40:23
  TRACK 289 AUDIO
    TITLE "0:"
    INDEX 01 09:44:73
  TRACK 290 AUDIO
    TITLE "3:cjc087_0845"
    INDEX 01 09:45:71
  TRACK 291 AUDIO
    TITLE "4:cjc087_0846"
    INDEX 01 09:48:61
  TRACK 292 AUDIO
    TITLE "0:"
    INDEX 01 09:51:13
  TRACK 293 AUDIO
    TITLE "3:cjc087_0847"
    INDEX 01 09:52:10
  TRACK 294 AUDIO
    TITLE "4:cjc087_0848"
    INDEX 01 09:54:58
  TRACK 295 AUDIO
    TITLE "0:"
    INDEX 01 09:57:53
  TRACK 296 AUDIO
    TITLE "3:cjc087_0849"
    INDEX 01 09:58:50
  TRACK 297 AUDIO
    TITLE "4:cjc087_0850"
    INDEX 01 10:00:51
  TRACK 298 AUDIO
    TITLE "0:"
    INDEX 01 10:03:08
  TRACK 299 AUDIO
    TITLE "3:cjc087_0851"
    INDEX 01 10:04:06
  TRACK 300 AUDIO
    TITLE "4:cjc087_0852"
    INDEX 01 10:07:63
  TRACK 301 AUDIO
    TITLE "0:"
    INDEX 01 10:11:41
  TRACK 302 AUDIO
    TITLE "3:cjc087_0853"
    INDEX 01 10:12:38
  TRACK 303 AUDIO
    TITLE "4:cjc087_0854"
    INDEX 01 10:14:73
  TRACK 304 AUDIO
    TITLE "0:"
    INDEX 01 10:17:57
  TRACK 305 AUDIO
    TITLE "5:cjc087_0855"
    INDEX 01 10:19:17
  TRACK 306 AUDIO
    TITLE "0:"
    INDEX 01 10:21:10
  TRACK 307 AUDIO
    TITLE "4:cjc087_0856"
    INDEX 01 10:22:06
  TRACK 308 AUDIO
    TITLE "3:cjc087_0857"
    INDEX 01 10:23:72
  TRACK 309 AUDIO
    TITLE "0:"
    INDEX 01 10:26:11
  TRACK 310 AUDIO
    TITLE "4:cjc087_0858"
    INDEX 01 10:27:03
  TRACK 311 AUDIO
    TITLE "3:cjc087_0859"
    INDEX 01 10:29:08
  TRACK 312 AUDIO
    TITLE "0:"
    INDEX 01 10:32:35
  TRACK 313 AUDIO
    TITLE "4:cjc087_0860"
    INDEX 01 10:33:35
  TRACK 314 AUDIO
    TITLE "3:cjc087_0861"
    INDEX 01 10:36:19
  TRACK 315 AUDIO
    TITLE "0:"
    INDEX 01 10:39:04
  TRACK 316 AUDIO
    TITLE "4:cjc087_0862"
    INDEX 01 10:40:01
  TRACK 317 AUDIO
    TITLE "3:cjc087_0863"
    INDEX 01 10:42:06
  TRACK 318 AUDIO
    TITLE "0:"
    INDEX 01 10:44:46
  TRACK 319 AUDIO
    TITLE "4:cjc087_0864"
    INDEX 01 10:45:46
  TRACK 320 AUDIO
    TITLE "3:cjc087_0865"
    INDEX 01 10:47:11
  TRACK 321 AUDIO
    TITLE "0:"
    INDEX 01 10:49:36
  TRACK 322 AUDIO
    TITLE "4:cjc087_0866"
    INDEX 01 10:50:27
  TRACK 323 AUDIO
    TITLE "3:cjc087_0867"
    INDEX 01 10:53:12
  TRACK 324 AUDIO
    TITLE "0:"
    INDEX 01 10:56:04
  TRACK 325 AUDIO
    TITLE "4:cjc087_0868"
    INDEX 01 10:57:04
  TRACK 326 AUDIO
    TITLE "3:cjc087_0869"
    INDEX 01 10:59:42
  TRACK 327 AUDIO
    TITLE "0:"
    INDEX 01 11:01:35
  TRACK 328 AUDIO
    TITLE "5:cjc087_0870"
    INDEX 01 11:02:70
  TRACK 329 AUDIO
    TITLE "0:"
    INDEX 01 11:04:55
  TRACK 330 AUDIO
    TITLE "4:cjc087_0871"
    INDEX 01 11:05:50
  TRACK 331 AUDIO
    TITLE "3:cjc087_0872"
    INDEX 01 11:07:61
  TRACK 332 AUDIO
    TITLE "0:"
    INDEX 01 11:11:29
  TRACK 333 AUDIO
    TITLE "4:cjc087_0873"
    INDEX 01 11:12:29
  TRACK 334 AUDIO
    TITLE "3:cjc087_0874"
    INDEX 01 11:14:49
  TRACK 335 AUDIO
    TITLE "0:"
    INDEX 01 11:17:50
  TRACK 336 AUDIO
    TITLE "4:cjc087_0875"
    INDEX 01 11:18:45
  TRACK 337 AUDIO
    TITLE "3:cjc087_0876"
    INDEX 01 11:20:21
  TRACK 338 AUDIO
    TITLE "0:"
    INDEX 01 11:22:41
  TRACK 339 AUDIO
    TITLE "4:cjc087_0877"
    INDEX 01 11:23:39
  TRACK 340 AUDIO
    TITLE "3:cjc087_0878"
    INDEX 01 11:26:15
  TRACK 341 AUDIO
    TITLE "0:"
    INDEX 01 11:28:49
  TRACK 342 AUDIO
    TITLE "4:cjc087_0879"
    INDEX 01 11:29:49
  TRACK 343 AUDIO
    TITLE "3:cjc087_0880"
    INDEX 01 11:31:28
  TRACK 344 AUDIO
    TITLE "0:"
    INDEX 01 11:33:09
  TRACK 345 AUDIO
    TITLE "4:cjc087_0881"
    INDEX 01 11:34:09
  TRACK 346 AUDIO
    TITLE "3:cjc087_0882"
    INDEX 01 11:35:53
  TRACK 347 AUDIO
    TITLE "0:"
    INDEX 01 11:38:05
  TRACK 348 AUDIO
    TITLE "4:cjc087_0883"
    INDEX 01 11:39:04
  TRACK 349 AUDIO
    TITLE "3:cjc087_0884"
    INDEX 01 11:41:11
  TRACK 350 AUDIO
    TITLE "0:"
    INDEX 01 11:43:33
  TRACK 351 AUDIO
    TITLE "5:cjc087_0885"
    INDEX 01 11:44:70
  TRACK 352 AUDIO
    TITLE "0:"
    INDEX 01 11:47:00
  TRACK 353 AUDIO
    TITLE "4:cjc087_0886"
    INDEX 01 11:47:72
  TRACK 354 AUDIO
    TITLE "3:cjc087_0887"
    INDEX 01 11:49:59
  TRACK 355 AUDIO
    TITLE "0:"
    INDEX 01 11:51:68
  TRACK 356 AUDIO
    TITLE "4:cjc087_0888"
    INDEX 01 11:52:68
  TRACK 357 AUDIO
    TITLE "3:cjc087_0889"
    INDEX 01 11:54:45
  TRACK 358 AUDIO
    TITLE "0:"
    INDEX 01 11:56:54
  TRACK 359 AUDIO
    TITLE "4:cjc087_0890"
    INDEX 01 11:57:51
  TRACK 360 AUDIO
    TITLE "3:cjc087_0891"
    INDEX 01 11:59:40
  TRACK 361 AUDIO
    TITLE "0:"
    INDEX 01 12:01:57
  TRACK 362 AUDIO
    TITLE "4:cjc087_0892"
    INDEX 01 12:02:54
  TRACK 363 AUDIO
    TITLE "3:cjc087_0893"
    INDEX 01 12:04:20
  TRACK 364 AUDIO
    TITLE "0:"
    INDEX 01 12:06:38
  TRACK 365 AUDIO
    TITLE "4:cjc087_0894"
    INDEX 01 12:07:38
  TRACK 366 AUDIO
    TITLE "3:cjc087_0895"
    INDEX 01 12:09:39
  TRACK 367 AUDIO
    TITLE "0:"
    INDEX 01 12:11:39
  TRACK 368 AUDIO
    TITLE "4:cjc087_0896"
    INDEX 01 12:12:39
  TRACK 369 AUDIO
    TITLE "3:cjc087_0897"
    INDEX 01 12:15:10
  TRACK 370 AUDIO
    TITLE "0:"
    INDEX 01 12:17:68
  TRACK 371 AUDIO
    TITLE "4:cjc087_0898"
    INDEX 01 12:18:67
  TRACK 372 AUDIO
    TITLE "3:cjc087_0899"
    INDEX 01 12:21:14
  TRACK 373 AUDIO
    TITLE "0:"
    INDEX 01 12:23:25
  TRACK 374 AUDIO
    TITLE "5:cjc087_0900"
    INDEX 01 12:24:56
  TRACK 375 AUDIO
    TITLE "0:"
    INDEX 01 12:26:49
  TRACK 376 AUDIO
    TITLE "3:cjc087_0901"
    INDEX 01 12:27:46
  TRACK 377 AUDIO
    TITLE "4:cjc087_0902"
    INDEX 01 12:30:53
  TRACK 378 AUDIO
    TITLE "0:"
    INDEX 01 12:33:02
  TRACK 379 AUDIO
    TITLE "3:cjc087_0903"
    INDEX 01 12:33:74
  TRACK 380 AUDIO
    TITLE "4:cjc087_0904"
    INDEX 01 12:36:12
  TRACK 381 AUDIO
    TITLE "0:"
    INDEX 01 12:37:72
  TRACK 382 AUDIO
    TITLE "3:cjc087_0905"
    INDEX 01 12:38:70
  TRACK 383 AUDIO
    TITLE "4:cjc087_0906"
    INDEX 01 12:41:74
  TRACK 384 AUDIO
    TITLE "0:"
    INDEX 01 12:44:37
  TRACK 385 AUDIO
    TITLE "3:cjc087_0907"
    INDEX 01 12:45:34
  TRACK 386 AUDIO
    TITLE "4:cjc087_0908"
    INDEX 01 12:47:29
  TRACK 387 AUDIO
    TITLE "0:"
    INDEX 01 12:49:01
  TRACK 388 AUDIO
    TITLE "3:cjc087_0909"
    INDEX 01 12:50:00
  TRACK 389 AUDIO
    TITLE "4:cjc087_0910"
    INDEX 01 12:52:35
  TRACK 390 AUDIO
    TITLE "0:"
    INDEX 01 12:54:33
  TRACK 391 AUDIO
    TITLE "3:cjc087_0911"
    INDEX 01 12:55:33
  TRACK 392 AUDIO
    TITLE "4:cjc087_0912"
    INDEX 01 12:57:40
  TRACK 393 AUDIO
    TITLE "0:"
    INDEX 01 12:59:44
  TRACK 394 AUDIO
    TITLE "3:cjc087_0913"
    INDEX 01 13:00:42
  TRACK 395 AUDIO
    TITLE "4:cjc087_0914"
    INDEX 01 13:04:20
  TRACK 396 AUDIO
    TITLE "0:"
    INDEX 01 13:08:26
  TRACK 397 AUDIO
    TITLE "2:cjc087_0915"
    INDEX 01 13:09:55
  TRACK 398 AUDIO
    TITLE "0:"
    INDEX 01 13:20:48
  TRACK 399 AUDIO
    TITLE "5:cjc087_0916"
    INDEX 01 13:22:14
  TRACK 400 AUDIO
    TITLE "0:"
    INDEX 01 13:24:09
  TRACK 401 AUDIO
    TITLE "4:cjc087_0917"
    INDEX 01 13:25:07
  TRACK 402 AUDIO
    TITLE "3:cjc087_0918"
    INDEX 01 13:27:21
  TRACK 403 AUDIO
    TITLE "0:"
    INDEX 01 13:29:10
  TRACK 404 AUDIO
    TITLE "4:cjc087_0919"
    INDEX 01 13:30:08
  TRACK 405 AUDIO
    TITLE "3:cjc087_0920"
    INDEX 01 13:31:40
  TRACK 406 AUDIO
    TITLE "0:"
    INDEX 01 13:33:24
  TRACK 407 AUDIO
    TITLE "4:cjc087_0921"
    INDEX 01 13:34:21
  TRACK 408 AUDIO
    TITLE "3:cjc087_0922"
    INDEX 01 13:36:10
  TRACK 409 AUDIO
    TITLE "0:"
    INDEX 01 13:38:13
  TRACK 410 AUDIO
    TITLE "4:cjc087_0923"
    INDEX 01 13:39:15
  TRACK 411 AUDIO
    TITLE "3:cjc087_0924"
    INDEX 01 13:40:36
  TRACK 412 AUDIO
    TITLE "0:"
    INDEX 01 13:42:23
  TRACK 413 AUDIO
    TITLE "4:cjc087_0925"
    INDEX 01 13:43:20
  TRACK 414 AUDIO
    TITLE "3:cjc087_0926"
    INDEX 01 13:45:68
  TRACK 415 AUDIO
    TITLE "0:"
    INDEX 01 13:48:53
  TRACK 416 AUDIO
    TITLE "4:cjc087_0927"
    INDEX 01 13:49:46
  TRACK 417 AUDIO
    TITLE "3:cjc087_0928"
    INDEX 01 13:51:53
  TRACK 418 AUDIO
    TITLE "0:"
    INDEX 01 13:54:10
  TRACK 419 AUDIO
    TITLE "4:cjc087_0929"
    INDEX 01 13:55:08
  TRACK 420 AUDIO
    TITLE "3:cjc087_0930"
    INDEX 01 13:56:44
  TRACK 421 AUDIO
    TITLE "0:"
    INDEX 01 13:59:02
  TRACK 422 AUDIO
    TITLE "5:cjc087_0931"
    INDEX 01 14:00:36
  TRACK 423 AUDIO
    TITLE "0:"
    INDEX 01 14:02:33
  TRACK 424 AUDIO
    TITLE "4:cjc087_0932"
    INDEX 01 14:03:33
  TRACK 425 AUDIO
    TITLE "3:cjc087_0933"
    INDEX 01 14:05:10
  TRACK 426 AUDIO
    TITLE "0:"
    INDEX 01 14:07:11
  TRACK 427 AUDIO
    TITLE "4:cjc087_0934"
    INDEX 01 14:08:08
  TRACK 428 AUDIO
    TITLE "3:cjc087_0935"
    INDEX 01 14:10:35
  TRACK 429 AUDIO
    TITLE "0:"
    INDEX 01 14:12:63
  TRACK 430 AUDIO
    TITLE "4:cjc087_0936"
    INDEX 01 14:13:60
  TRACK 431 AUDIO
    TITLE "3:cjc087_0937"
    INDEX 01 14:15:44
  TRACK 432 AUDIO
    TITLE "0:"
    INDEX 01 14:18:18
  TRACK 433 AUDIO
    TITLE "4:cjc087_0938"
    INDEX 01 14:19:16
  TRACK 434 AUDIO
    TITLE "3:cjc087_0939"
    INDEX 01 14:21:17
  TRACK 435 AUDIO
    TITLE "0:"
    INDEX 01 14:23:51
  TRACK 436 AUDIO
    TITLE "4:cjc087_0940"
    INDEX 01 14:24:48
  TRACK 437 AUDIO
    TITLE "3:cjc087_0941"
    INDEX 01 14:27:63
  TRACK 438 AUDIO
    TITLE "0:"
    INDEX 01 14:30:10
  TRACK 439 AUDIO
    TITLE "4:cjc087_0942"
    INDEX 01 14:31:07
  TRACK 440 AUDIO
    TITLE "3:cjc087_0943"
    INDEX 01 14:33:02
  TRACK 441 AUDIO
    TITLE "0:"
    INDEX 01 14:35:09
  TRACK 442 AUDIO
    TITLE "4:cjc087_0944"
    INDEX 01 14:36:09
  TRACK 443 AUDIO
    TITLE "3:cjc087_0945"
    INDEX 01 14:38:00
  TRACK 444 AUDIO
    TITLE "0:"
    INDEX 01 14:40:06
  TRACK 445 AUDIO
    TITLE "5:cjc087_0946"
    INDEX 01 14:41:45
  TRACK 446 AUDIO
    TITLE "0:"
    INDEX 01 14:43:36
  TRACK 447 AUDIO
    TITLE "4:cjc087_0947"
    INDEX 01 14:44:36
  TRACK 448 AUDIO
    TITLE "3:cjc087_0948"
    INDEX 01 14:46:09
  TRACK 449 AUDIO
    TITLE "0:"
    INDEX 01 14:47:69
  TRACK 450 AUDIO
    TITLE "4:cjc087_0949"
    INDEX 01 14:48:65
  TRACK 451 AUDIO
    TITLE "3:cjc087_0950"
    INDEX 01 14:50:44
  TRACK 452 AUDIO
    TITLE "0:"
    INDEX 01 14:52:41
  TRACK 453 AUDIO
    TITLE "4:cjc087_0951"
    INDEX 01 14:53:40
  TRACK 454 AUDIO
    TITLE "3:cjc087_0952"
    INDEX 01 14:56:11
  TRACK 455 AUDIO
    TITLE "0:"
    INDEX 01 14:58:47
  TRACK 456 AUDIO
    TITLE "4:cjc087_0953"
    INDEX 01 14:59:45
  TRACK 457 AUDIO
    TITLE "3:cjc087_0954"
    INDEX 01 15:01:40
  TRACK 458 AUDIO
    TITLE "0:"
    INDEX 01 15:03:70
  TRACK 459 AUDIO
    TITLE "4:cjc087_0955"
    INDEX 01 15:04:70
  TRACK 460 AUDIO
    TITLE "3:cjc087_0956"
    INDEX 01 15:07:37
  TRACK 461 AUDIO
    TITLE "0:"
    INDEX 01 15:10:00
  TRACK 462 AUDIO
    TITLE "4:cjc087_0957"
    INDEX 01 15:10:74
  TRACK 463 AUDIO
    TITLE "3:cjc087_0958"
    INDEX 01 15:13:02
  TRACK 464 AUDIO
    TITLE "0:"
    INDEX 01 15:14:68
  TRACK 465 AUDIO
    TITLE "4:cjc087_0959"
    INDEX 01 15:15:67
  TRACK 466 AUDIO
    TITLE "3:cjc087_0960"
    INDEX 01 15:18:05
  TRACK 467 AUDIO
    TITLE "0:"
    INDEX 01 15:21:35
  TRACK 468 AUDIO
    TITLE "5:cjc087_0961"
    INDEX 01 15:22:69
  TRACK 469 AUDIO
    TITLE "0:"
    INDEX 01 15:25:03
  TRACK 470 AUDIO
    TITLE "4:cjc087_0962"
    INDEX 01 15:26:01
  TRACK 471 AUDIO
    TITLE "3:cjc087_0963"
    INDEX 01 15:28:17
  TRACK 472 AUDIO
    TITLE "0:"
    INDEX 01 15:30:57
  TRACK 473 AUDIO
    TITLE "4:cjc087_0964"
    INDEX 01 15:31:61
  TRACK 474 AUDIO
    TITLE "3:cjc087_0965"
    INDEX 01 15:33:30
  TRACK 475 AUDIO
    TITLE "0:"
    INDEX 01 15:35:13
  TRACK 476 AUDIO
    TITLE "4:cjc087_0966"
    INDEX 01 15:36:13
  TRACK 477 AUDIO
    TITLE "3:cjc087_0967"
    INDEX 01 15:39:15
  TRACK 478 AUDIO
    TITLE "0:"
    INDEX 01 15:42:47
  TRACK 479 AUDIO
    TITLE "4:cjc087_0968"
    INDEX 01 15:43:44
  TRACK 480 AUDIO
    TITLE "3:cjc087_0969"
    INDEX 01 15:45:00
  TRACK 481 AUDIO
    TITLE "0:"
    INDEX 01 15:47:03
  TRACK 482 AUDIO
    TITLE "4:cjc087_0970"
    INDEX 01 15:48:02
  TRACK 483 AUDIO
    TITLE "3:cjc087_0971"
    INDEX 01 15:49:25
  TRACK 484 AUDIO
    TITLE "0:"
    INDEX 01 15:50:46
  TRACK 485 AUDIO
    TITLE "4:cjc087_0972"
    INDEX 01 15:51:61
  TRACK 486 AUDIO
    TITLE "3:cjc087_0973"
    INDEX 01 15:53:25
  TRACK 487 AUDIO
    TITLE "0:"
    INDEX 01 15:55:32
  TRACK 488 AUDIO
    TITLE "4:cjc087_0974"
    INDEX 01 15:56:29
  TRACK 489 AUDIO
    TITLE "3:cjc087_0975"
    INDEX 01 15:57:54
  TRACK 490 AUDIO
    TITLE "0:"
    INDEX 01 15:59:43
